<svg xmlns="http://www.w3.org/2000/svg" width="1280" height="720" viewBox="0 0 1280 720">
  <defs>
    <linearGradient id="bg" x1="0%" y1="0%" x2="100%" y2="100%">
      <stop offset="0%" stop-color="#0B1D3A"/>
      <stop offset="100%" stop-color="#1a3a5c"/>
    </linearGradient>
  </defs>
  <rect width="1280" height="720" fill="url(#bg)"/>
  <!-- Decorative elements -->
  <circle cx="180" cy="200" r="150" fill="white" opacity="0.02"/>
  <circle cx="1050" cy="500" r="200" fill="white" opacity="0.02"/>
  <circle cx="640" cy="360" r="260" fill="white" opacity="0.015"/>
  <rect x="80" y="580" width="100" height="100" rx="10" fill="white" opacity="0.015" transform="rotate(20 130 630)"/>
  <line x1="0" y1="650" x2="300" y2="720" stroke="white" stroke-width="1" opacity="0.03"/>
  <line x1="980" y1="0" x2="1280" y2="180" stroke="white" stroke-width="1" opacity="0.03"/>
  <!-- Shield / Protection Icon -->
  <g transform="translate(640, 350)" fill="none" stroke="white" stroke-width="5" stroke-linecap="round" stroke-linejoin="round">
    <!-- Shield shape -->
    <path d="M0,-110 L95,-75 L95,10 Q95,80 0,120 Q-95,80 -95,10 L-95,-75 Z" fill="white" fill-opacity="0.08"/>
    <path d="M0,-110 L95,-75 L95,10 Q95,80 0,120 Q-95,80 -95,10 L-95,-75 Z"/>
    <!-- Checkmark inside shield -->
    <path d="M-35,10 L-10,40 L40,-25" stroke-width="8" fill="none"/>
    <!-- Inner shield line -->
    <path d="M0,-80 L65,-55 L65,5 Q65,55 0,85 Q-65,55 -65,5 L-65,-55 Z" fill="none" stroke-width="2" opacity="0.3"/>
  </g>
</svg>